<svg width="100pt" height="100pt" viewBox="0 0 100 100" xmlns="http://www.w3.org/2000/svg">
   <path
      d="M76.25 17.54l-51.693 5.62a7.4 7.4 0 00-5.335 3.215l-9.77 14.458a7.391 7.391 0 001.033 9.504l4.83 4.595c-.859-3.39.034-7.09 2.604-9.735l12.12-12.556a10.377 10.377 0 016.316-3.098 10.544 10.544 0 011.812-.034l47.167 3.12-.928-8.532a7.401 7.401 0 00-8.155-6.556zm20.482 24.907c.047.427.05.872.024 1.308l-1.754 26.581a7.355 7.355 0 01-2.5 5.08 7.394 7.394 0 01-4.063 1.78 7.725 7.725 0 01-1.306.038l-51.89-3.438a7.355 7.355 0 01-5.458-2.977l-2.288-3.101c-2.737 2.619-6.044 4.229-9.413 4.595a12.93 12.93 0 01-6.66-1.017C4.764 68.344 1.65 59.841 4.184 51.513c.243-.77 1.072-1.219 1.843-.975a1.467 1.467 0 01.99 1.842c-2.094 6.897.317 13.868 5.617 16.208 4.316 1.912 9.578.343 13.392-3.6 1.077-1.054 2.383-2.863 3.415-5.133 1.043-2.332 1.586-4.861 1.561-7.285a1.501 1.501 0 00-1.5-1.474 1.452 1.452 0 00-1.46 1.498c.012 2.023-.43 4.111-1.304 6.067-.719 1.61-1.663 3.053-2.8 4.233l-4.52-6.117a7.358 7.358 0 01.63-9.536l12.121-12.54a7.355 7.355 0 015.8-2.239l51.904 3.422a7.288 7.288 0 015.066 2.515 7.29 7.29 0 011.794 4.048z" />
   <path
      d="M76.644 38.312a3.726 3.726 0 00-1.899.57l-1.977 1.24 4.314 6.896 2.877 4.626 1.998-1.258a3.728 3.728 0 001.187-5.137l-3.27-5.192a3.615 3.615 0 00-2.316-1.646 3.66 3.66 0 00-.914-.099zm-6.166 3.245L44.01 57.97c-.42.252-.659.72-.64 1.197.027.488.306.92.737 1.137 1.217.622 2.217 1.341 3 2.157v.002l26.277-16.286zm4.32 6.88L48.57 64.677c.456 1.076.645 2.274.595 3.604-.009.342.11.667.326.923.096.112.202.216.34.294.426.254.961.24 1.392-.022l26.49-16.43zM41.83 61.9l-2.957 5.957a1.344 1.344 0 001.22 1.941l6.64-.074a4.057 4.057 0 01-.255-1.505c.063-1.552-.297-2.709-1.128-3.685-.574-.676-1.402-1.292-2.464-1.833a3.95 3.95 0 01-1.056-.8z"
      fill="#fff" />
</svg>